<svg xmlns="http://www.w3.org/2000/svg" version="1.1" xmlns:xlink="http://www.w3.org/1999/xlink" width="1000" height="1000"><g clip-path="url(#SvgjsClipPath1263)"><rect width="1000" height="1000" fill="#ffffff"></rect><g transform="matrix(1.1686143572621035,0,0,1.1686143572621035,189.73288814691153,150)"><svg xmlns="http://www.w3.org/2000/svg" width="531" height="599" viewBox="0 0 531 599" fill="none"><path d="M285.125 128.547C286.385 128.8 287.644 129.053 288.942 129.314C292.287 129.986 295.631 130.663 298.974 131.34C302.287 132.011 305.601 132.677 308.914 133.344C314.119 134.392 319.324 135.442 324.529 136.494C331.447 137.89 338.368 139.275 345.289 140.657C369.817 145.555 394.308 150.635 418.789 155.766C420.767 156.18 422.744 156.595 424.722 157.009C429.481 158.006 434.241 159.003 439 160C439.047 181.333 439.082 202.666 439.104 223.999C439.114 233.906 439.128 243.813 439.151 253.72C439.171 262.362 439.184 271.005 439.188 279.647C439.191 284.217 439.197 288.786 439.211 293.355C439.225 297.67 439.229 301.986 439.226 306.302C439.227 307.871 439.231 309.441 439.238 311.01C439.307 325.603 438.376 340.234 434.812 354.438C434.599 355.305 434.385 356.172 434.165 357.065C424.742 393.856 402.121 424.965 373 449C372.508 449.412 372.015 449.823 371.508 450.247C361.832 458.305 351.696 465.517 341.228 472.506C339.241 473.839 337.268 475.189 335.301 476.551C319.086 487.705 301.828 497.197 284.375 506.25C283.435 506.74 283.435 506.74 282.475 507.239C266.594 515.485 266.594 515.485 261.946 514.073C260.873 513.523 259.8 512.973 258.695 512.407C258.103 512.109 257.511 511.812 256.901 511.505C254.964 510.524 253.045 509.514 251.125 508.5C249.774 507.804 248.423 507.108 247.072 506.412C213.955 489.258 181.806 468.982 154 444C153.457 443.514 152.915 443.028 152.355 442.527C148.867 439.39 145.421 436.211 142 433C141.345 432.388 140.69 431.776 140.016 431.145C134.862 426.169 130.4 420.643 126 415C125.205 413.983 124.409 412.966 123.59 411.918C101.212 382.433 92.7991 348.55 92.8864 312.124C92.8867 310.458 92.8865 308.791 92.886 307.124C92.8857 302.635 92.8915 298.146 92.8985 293.658C92.9048 288.953 92.9054 284.249 92.9066 279.544C92.9097 270.652 92.9179 261.759 92.9279 252.867C92.9391 242.736 92.9446 232.605 92.9496 222.475C92.96 201.65 92.9776 180.825 92.9999 160C95.5104 159.365 98.0213 158.731 100.533 158.098C101.233 157.921 101.933 157.743 102.655 157.56C109.765 155.773 116.923 154.334 124.121 152.942C125.518 152.668 126.915 152.395 128.312 152.121C131.953 151.407 135.594 150.698 139.236 149.991C142.866 149.285 146.494 148.575 150.123 147.866C151.556 147.585 152.989 147.305 154.422 147.025C155.126 146.887 155.831 146.75 156.557 146.608C158.677 146.193 160.797 145.779 162.917 145.365C180.766 141.879 198.6 138.347 216.375 134.5C228.154 131.966 239.952 129.632 251.814 127.51C252.852 127.324 253.891 127.138 254.961 126.946C255.866 126.786 256.772 126.626 257.705 126.462C267.239 124.545 275.579 126.605 285.125 128.547Z" fill="#F7F5F3"></path><path d="M266 126C266 163.95 266 201.9 266 241C263.36 239.02 260.72 237.04 258 235C249.445 229.197 240.663 224.659 231 221C229.836 220.558 228.672 220.116 227.473 219.66C211.931 214.295 195.307 212.513 179 211C179 216.94 179 222.88 179 229C172.4 229 165.8 229 159 229C159 234.94 159 240.88 159 247C152.4 247 145.8 247 139 247C139.33 293.53 139.66 340.06 140 388C150.395 386.02 150.395 386.02 161 384C193.534 380.385 237.8 382.2 266 401C266.369 403.011 266.369 403.011 266.361 405.53C266.367 406.961 266.367 406.961 266.373 408.42C266.362 409.469 266.352 410.519 266.341 411.6C266.341 412.703 266.341 413.805 266.342 414.941C266.34 418.599 266.316 422.256 266.293 425.914C266.287 428.445 266.283 430.975 266.28 433.506C266.27 439.495 266.246 445.483 266.216 451.472C266.182 458.29 266.166 465.107 266.151 471.924C266.12 485.95 266.067 499.975 266 514C262.191 513.296 259.149 512.273 255.668 510.551C254.635 510.04 253.601 509.529 252.537 509.003C251.431 508.445 250.326 507.887 249.187 507.312C248.033 506.731 246.879 506.149 245.69 505.55C212.974 488.932 181.342 468.565 154 444C153.457 443.514 152.915 443.027 152.355 442.526C148.867 439.389 145.421 436.211 142 433C141.345 432.388 140.69 431.775 140.016 431.145C134.862 426.169 130.4 420.643 126 415C125.205 413.983 124.409 412.966 123.59 411.918C101.212 382.433 92.7991 348.55 92.8864 312.124C92.8867 310.457 92.8865 308.79 92.886 307.124C92.8857 302.635 92.8915 298.146 92.8985 293.657C92.9048 288.953 92.9054 284.248 92.9066 279.544C92.9097 270.651 92.9179 261.759 92.9279 252.866C92.9391 242.735 92.9446 232.605 92.9496 222.474C92.96 201.649 92.9776 180.825 92.9999 160C95.5104 159.364 98.0213 158.731 100.533 158.098C101.233 157.92 101.933 157.743 102.655 157.56C109.765 155.772 116.923 154.333 124.121 152.941C125.518 152.668 126.915 152.394 128.312 152.12C131.953 151.407 135.594 150.698 139.236 149.99C142.866 149.285 146.494 148.575 150.123 147.865C151.556 147.585 152.989 147.305 154.422 147.025C155.126 146.887 155.831 146.749 156.557 146.607C158.677 146.193 160.797 145.779 162.917 145.365C180.766 141.879 198.6 138.345 216.375 134.5C226.957 132.232 237.551 130.059 248.187 128.062C249.297 127.851 250.407 127.64 251.55 127.422C252.579 127.232 253.608 127.043 254.668 126.848C255.558 126.683 256.447 126.518 257.364 126.348C260 126 260 126 266 126Z" fill="#800020"></path><path d="M263 125C270.492 125.694 277.756 127.047 285.125 128.547C286.385 128.8 287.644 129.053 288.942 129.314C292.287 129.986 295.631 130.662 298.974 131.34C302.287 132.011 305.601 132.677 308.914 133.344C314.119 134.392 319.324 135.442 324.529 136.493C331.447 137.89 338.368 139.275 345.289 140.656C369.817 145.555 394.309 150.634 418.789 155.766C420.767 156.18 422.744 156.594 424.722 157.008C429.481 158.005 434.241 159.002 439 160C439.047 181.333 439.082 202.666 439.104 223.999C439.114 233.905 439.128 243.812 439.151 253.719C439.171 262.362 439.184 271.004 439.188 279.647C439.191 284.216 439.197 288.785 439.211 293.354C439.225 297.67 439.229 301.986 439.226 306.301C439.227 307.871 439.231 309.44 439.238 311.01C439.307 325.603 438.376 340.233 434.812 354.438C434.599 355.305 434.385 356.172 434.165 357.065C424.742 393.856 402.122 424.965 373 449C372.508 449.412 372.015 449.823 371.508 450.247C361.832 458.305 351.696 465.516 341.228 472.505C339.241 473.838 337.268 475.189 335.301 476.551C319.086 487.705 301.828 497.197 284.375 506.25C283.748 506.576 283.121 506.903 282.476 507.239C276.679 510.248 271.216 512.928 265 515C265 477.05 265 439.1 265 400C289.421 390.697 289.421 390.697 298.5 388.688C299.547 388.449 300.594 388.212 301.673 387.966C304.777 387.28 307.885 386.63 311 386C311.881 385.821 312.762 385.641 313.669 385.457C339.289 380.477 368.112 380.704 393 389C393 342.14 393 295.28 393 247C386.4 247 379.8 247 373 247C373 241.06 373 235.12 373 229C366.4 229 359.8 229 353 229C353 223.06 353 217.12 353 211C324.265 211.917 292.175 218.721 270.039 238.215C268 240 268 240 266 241C266 203.05 266 165.1 266 126C265.01 125.67 264.02 125.34 263 125Z" fill="#800020"></path><path d="M187 219C205.736 219 223.25 223.762 240 232C241.076 232.517 242.153 233.034 243.262 233.566C250.109 237.071 256.543 241.543 262 247C262.096 248.784 262.122 250.572 262.12 252.359C262.122 254.103 262.122 254.103 262.124 255.882C262.119 257.812 262.119 257.812 262.114 259.781C262.113 261.141 262.113 262.501 262.114 263.861C262.114 267.563 262.108 271.265 262.101 274.968C262.095 278.833 262.095 282.698 262.093 286.563C262.09 293.887 262.082 301.211 262.072 308.535C262.061 316.871 262.055 325.207 262.05 333.543C262.04 350.695 262.022 367.848 262 385C258.573 383.369 256.057 381.437 253.188 378.938C242.213 369.872 230.325 363.859 217 359C214.36 358.01 211.72 357.02 209 356C201.74 354.68 194.48 353.36 187 352C187 308.11 187 264.22 187 219Z" fill="#800020"></path><path d="M345 219C345 262.89 345 306.78 345 352C339.06 352.99 333.12 353.98 327 355C323.369 355.952 319.955 356.896 316.438 358.125C315.567 358.424 314.697 358.722 313.801 359.03C301.32 363.482 290.097 369.636 279.711 377.859C277.614 379.515 275.507 381.088 273.331 382.634C272.393 383.301 272.393 383.301 271.436 383.982C270.725 384.486 270.725 384.486 270 385C269.79 367.145 269.631 349.291 269.534 331.436C269.487 323.144 269.424 314.854 269.321 306.563C269.231 299.335 269.173 292.108 269.153 284.879C269.142 281.053 269.114 277.229 269.048 273.403C268.987 269.797 268.969 266.194 268.982 262.588C268.978 260.643 268.93 258.698 268.88 256.753C268.969 248.344 268.969 248.344 271.938 244.474C274.201 242.423 276.453 240.68 279 239C279.688 238.535 280.376 238.069 281.085 237.59C282.871 236.426 284.688 235.39 286.563 234.375C287.241 234.002 287.919 233.628 288.618 233.244C306.032 223.927 325.294 219 345 219Z" fill="#800020"></path><path d="M260.699 554.426C265.451 555.253 269.358 554.107 274 553C301.965 547.081 325.688 544.326 350.882 560.185C355.86 563.561 360.58 566.971 364 572C344.445 577.986 322.322 576.942 304.062 567.688C298.918 564.741 293.93 561.5 290 557C290 556.34 290 555.68 290 555C289.157 555.289 288.314 555.578 287.445 555.875C286.35 556.246 285.254 556.618 284.125 557C282.489 557.557 282.489 557.557 280.82 558.125C278 559 278 559 276 559C276 559.66 276 560.32 276 561C276.842 561.236 277.684 561.472 278.551 561.715C282.533 563.199 285.697 565.176 289.188 567.563C290.172 568.23 290.172 568.23 291.177 568.91C301.057 575.693 309.702 583.379 318 592C311.051 597.592 311.051 597.592 308 599C304.248 597.752 302.514 595.407 300.188 592.313C292.698 582.746 284.02 575.799 274 569C273.389 568.574 272.778 568.148 272.148 567.709C268.538 565.365 268.538 565.365 264.383 565.559C263.596 566.034 262.81 566.51 262 567C260.759 567.698 260.759 567.698 259.492 568.41C246.258 576.766 235.34 586.481 226 599C221.99 598.137 219.232 596.571 216 594C216 589.118 216.74 588.505 220 585C227.721 577.438 244.771 561 256 561C256 560.34 256 559.68 256 559C255.285 558.867 254.569 558.735 253.832 558.598C251.058 558.012 248.397 557.269 245.688 556.438C244.804 556.168 243.921 555.899 243.012 555.621C242.348 555.416 241.684 555.211 241 555C240.629 555.884 240.629 555.884 240.25 556.785C235.037 566.023 221.882 570.717 212.227 573.422C211.492 573.613 210.757 573.804 210 574C209.421 574.174 208.842 574.347 208.246 574.526C203.084 575.616 197.629 575.185 192.375 575.188C191.141 575.2 189.908 575.212 188.637 575.225C181.509 575.236 174.916 574.772 168 573C173.407 561.411 188.545 555.394 199.812 550.871C218.507 544.334 242.432 547.674 260.699 554.426Z" fill="#800020"></path><path d="M348 0C347.359 5.39352 345.613 10.0545 343.625 15.0625C343.321 15.8521 343.017 16.6416 342.703 17.4551C338.464 28.2604 338.464 28.2604 334.301 30.3633C333.315 30.6765 332.329 30.9898 331.312 31.3125C329.822 31.8017 329.822 31.8017 328.301 32.3008C327.542 32.5315 326.782 32.7623 326 33C327.98 33.33 329.96 33.66 332 34C329.468 39.738 325.035 44.2742 321 49C320.446 49.6536 319.891 50.3071 319.32 50.9805C315.805 54.8287 312.962 56.0075 308 57C308.99 57.99 309.98 58.98 311 60C309.653 61.2581 308.297 62.506 306.938 63.75C306.183 64.4461 305.429 65.1422 304.652 65.8594C296.834 72.1691 289.774 73.1255 280.01 74.4219C279.01 74.5714 278.01 74.7209 276.98 74.875C276.072 74.9962 275.163 75.1173 274.227 75.2422C271.823 75.8003 271.823 75.8003 270.689 78.0703C270.461 78.7071 270.234 79.3439 270 80C270.496 80.5943 270.993 81.1885 271.504 81.8008C276.449 87.8347 281.43 94.0289 285 101C284.67 101.66 284.34 102.32 284 103C276.809 98.8359 272.735 94.8969 269.156 87.3555C268.102 84.8861 268.102 84.8861 266 83C265.017 84.6019 264.039 86.2066 263.062 87.8125C262.517 88.7058 261.972 89.5991 261.41 90.5195C259.89 93.007 259.89 93.007 259 96C256.715 97.8242 256.715 97.8242 253.938 99.6875C252.559 100.621 252.559 100.621 251.152 101.574C250.442 102.045 249.732 102.515 249 103C248.34 102.67 247.68 102.34 247 102C260.197 80.3487 260.197 80.3487 266.949 77.0469C273.318 73.7959 278.441 66.2798 283.297 61.0586C286.957 57.1367 290.682 53.3012 294.491 49.5229C296.247 47.7505 297.89 45.906 299.5 44C305.415 37.1819 311.764 31.4391 318.84 25.8203C319.553 25.2196 320.266 24.6189 321 24C321 23.67 321 23.34 321 23C313.75 29.1742 306.518 35.3559 299.477 41.7695C298.073 43.0333 296.663 44.2898 295.231 45.5212C290.092 49.9472 285.266 54.6141 280.5 59.4375C279.773 60.169 279.046 60.9006 278.297 61.6543C276.529 63.4339 274.763 65.2158 273 67C271.733 62.8456 272.626 59.885 274 55.875C274.229 55.207 274.457 54.539 274.693 53.8508C279.751 39.8686 291.714 28.0703 304 20C304.99 20 305.98 20 307 20C307 21.98 307 23.96 307 26C307.619 24.7876 307.619 24.7876 308.25 23.5508C308.827 22.4821 309.405 21.4135 310 20.3125C310.557 19.2568 311.114 18.201 311.688 17.1133C316.612 10.4837 324.354 7.77784 331.812 4.75C332.657 4.39937 333.502 4.04875 334.373 3.6875C343.301 0 343.301 0 348 0Z" fill="#800020"></path><path d="M147 254C150.96 254 154.92 254 159 254C159 290.63 159 327.26 159 365C160.485 364.505 160.485 364.505 162 364C164.448 363.867 166.867 363.789 169.316 363.762C170.04 363.752 170.764 363.742 171.51 363.732C201.192 363.409 225.29 368.433 250 386C246.405 387.198 245.173 386.695 241.59 385.637C240.517 385.327 239.444 385.017 238.338 384.697C236.655 384.197 236.655 384.197 234.938 383.688C218.002 378.714 202.414 376.813 184.814 376.815C182.335 376.813 179.856 376.794 177.377 376.775C175.747 376.772 174.118 376.77 172.488 376.77C171.417 376.759 171.417 376.759 170.324 376.748C162.353 376.782 155.1 377.987 147 379C147 337.75 147 296.5 147 254Z" fill="#800020"></path><path d="M373 254C376.96 254 380.92 254 385 254C385 295.25 385 336.5 385 379C374 378 374 378 368.906 377.453C341.432 374.979 315.565 377.286 289.24 385.321C286.17 386.252 283.087 387.128 280 388C292.377 373.822 318.169 366.176 336 364C340.747 363.782 345.476 363.752 350.227 363.794C352.392 363.813 354.557 363.815 356.723 363.814C362.302 363.834 367.499 363.9 373 365C373 328.37 373 291.74 373 254Z" fill="#800020"></path><path d="M184 0C190.954 0.474129 196.7 3.15875 203 6C204.374 6.56289 205.747 7.12537 207.121 7.6875C214.368 10.8046 219.332 13.1212 223 20.5C223.718 22.3137 224.405 24.142 225 26C225 23.69 225 21.38 225 19C243.26 29.4578 254.352 43.4908 260.434 63.3828C261 66 261 66 260 68C259.361 67.3504 258.722 66.7008 258.063 66.0315C255.639 63.5726 253.21 61.1187 250.778 58.6677C249.735 57.6156 248.695 56.5616 247.656 55.5056C241.535 49.2832 235.34 43.4184 228.478 37.9963C225.852 35.8804 223.361 33.6541 220.875 31.375C216.435 27.3259 211.803 23.6082 207 20C210.075 23.1773 213.271 26.1725 216.562 29.125C217.429 29.9023 218.295 30.6796 219.188 31.4805C220.619 32.7625 222.05 34.0445 223.484 35.3228C229.551 40.7388 235.341 46.2586 240.707 52.3867C243.34 55.3872 246.04 58.3191 248.75 61.25C259 72.3392 259 72.3392 259 75C247.361 75.5918 236.316 73.2853 227 66C224.763 63.7674 222.919 61.5254 221 59C223.97 58.505 223.97 58.505 227 58C226.31 57.9832 225.621 57.9665 224.91 57.9492C220.263 57.5221 217.069 56.9722 213.547 53.7695C211.246 50.9181 209.115 47.9913 207 45C205.49 43.1163 203.97 41.2406 202.438 39.375C199 35.1267 199 35.1267 199 34C201.97 33.505 201.97 33.505 205 33C204.359 32.9575 203.719 32.9149 203.059 32.8711C199.885 32.346 197.769 31.6738 195 30C191.865 25.3063 189.912 20.2897 188 15C187.348 13.2424 187.348 13.2424 186.684 11.4492C184 3.79116 184 3.79116 184 0Z" fill="#800020"></path><path d="M353 237C356.96 237 360.92 237 365 237C365 276.27 365 315.54 365 356C361.04 356 357.08 356 353 356C353 316.73 353 277.46 353 237Z" fill="#800020"></path><path d="M167 237C170.96 237 174.92 237 179 237C179 276.27 179 315.54 179 356C175.04 356 171.08 356 167 356C167 316.73 167 277.46 167 237Z" fill="#800020"></path><path d="M429.5 496.75C430.717 496.729 431.934 496.709 433.188 496.687C441.227 496.653 448.31 497.646 456 500C456 500.99 456 501.98 456 503C453.845 504.748 451.758 506.251 449.438 507.75C448.764 508.19 448.091 508.63 447.398 509.084C432.128 518.835 415.395 525.533 397 524C385.752 521.394 385.752 521.394 382 517C394.772 502.659 410.808 496.827 429.5 496.75Z" fill="#800020"></path><path d="M135 459C141.654 460.9 145.803 464.593 151 469C151.706 469.559 152.413 470.119 153.141 470.695C165.963 481.145 172.978 496 176 512C176.273 516.032 176.27 519.969 176 524C165.898 522.457 156.846 514.889 150.68 507.051C140.147 492.663 134.686 476.902 135 459Z" fill="#800020"></path><path d="M397 458C398.106 474.498 392.655 493.278 381.824 505.988C381.222 506.652 380.62 507.316 380 508C379.429 508.674 378.858 509.348 378.27 510.043C372.588 516.306 365.517 520.291 358 524C357.34 524 356.68 524 356 524C354.91 506.84 360.277 491.093 371.273 477.941C371.843 477.301 372.413 476.66 373 476C373.508 475.411 374.016 474.822 374.539 474.215C379.865 468.456 386.504 464.31 393 460C396 458 396 458 397 458Z" fill="#800020"></path><path d="M495 452C482.829 468.34 468.577 482.708 447.684 486.621C443.452 487.056 439.312 487.11 435.062 487.063C434.283 487.058 433.504 487.054 432.701 487.049C430.801 487.037 428.9 487.019 427 487C426.505 485.515 426.505 485.515 426 484C427.159 481.797 428.323 479.895 429.75 477.875C430.158 477.297 430.567 476.719 430.987 476.123C441.012 462.491 456.295 455.257 472.692 452.296C480.068 451.35 487.588 451.727 495 452Z" fill="#800020"></path><path d="M521 394C516.2 410.208 504.463 427.411 489.738 435.875C480.951 440.539 472.127 444.66 462 444C465.47 427.214 475.154 414.5 489.269 405.073C498.5 399.353 509.993 393.672 521 394Z" fill="#800020"></path><path d="M390 532C390.92 532.337 390.92 532.337 391.859 532.682C405.162 537.621 405.162 537.621 410 541C410 541.66 410 542.32 410 543C407.565 543.944 405.127 544.88 402.688 545.812C402.017 546.073 401.346 546.334 400.654 546.603C390.592 550.43 381.438 552.542 370.625 552.437C368.977 552.426 368.977 552.426 367.297 552.414C355.171 552.168 344.84 549.484 335 542C334.34 541.01 333.68 540.02 333 539C349.823 527.834 370.732 524.843 390 532Z" fill="#800020"></path><path d="M352 488C351.172 502.352 342.555 518.341 332 528C322.947 535.464 312.095 542 300 542C300.734 527.316 308.176 515.278 318.688 505.312C327.159 498.06 340.35 488 352 488Z" fill="#800020"></path><path d="M145 512C146.357 513.309 147.699 514.634 149 516C148.505 517.485 148.505 517.485 148 519C135.083 525.381 121.494 525.42 108 521C98.98 517.663 90.8788 513.504 83 508C82.1892 507.436 81.3784 506.873 80.543 506.293C76.4739 503.364 76.4739 503.364 75 502C75 501.34 75 500.68 75 500C99.4326 492.202 125.155 495.83 145 512Z" fill="#800020"></path><path d="M67.0001 279C69.4129 282.73 69.346 286.452 69.3126 290.75C69.3052 291.873 69.3052 291.873 69.2977 293.019C68.9039 312.253 63.2228 329.544 49.5587 343.492C43.3153 349.273 43.3153 349.273 39.0001 350C34.4903 336.326 36.1752 321.626 42.5782 308.852C49.0785 297.227 57.5235 288.196 67.0001 279Z" fill="#800020"></path><path d="M188.25 533.438C189.712 534.055 189.712 534.055 191.203 534.684C193.925 535.965 196.451 537.405 199 539C195.82 542.574 192.521 544.509 188.25 546.625C187.08 547.216 185.909 547.806 184.703 548.414C166.682 556.564 145.427 552.191 127.602 545.778C125.37 544.906 123.176 544.002 121 543C135.32 525.426 169.244 525.282 188.25 533.438Z" fill="#800020"></path><path d="M179 487C200.036 493.412 217.933 506.422 228.477 525.773C231.139 531.413 232.25 535.741 232 542C220.724 542.182 210.874 536.862 202.562 529.562C201.023 528.061 199.5 526.541 198 525C197.377 524.41 196.755 523.819 196.113 523.211C188.172 515.109 179 498.435 179 487Z" fill="#800020"></path><path d="M66 331C66.66 331 67.32 331 68 331C74.8393 352.153 75.939 371.587 65.6875 391.812C62.7003 397.14 59.3018 401.672 55 406C52.0352 402.612 51.036 399.315 49.875 395C49.3761 393.175 49.3761 393.175 48.8672 391.312C48.581 390.219 48.2948 389.126 48 388C47.8028 387.305 47.6055 386.61 47.4023 385.895C43.8015 368.939 52.3068 351.79 61.0039 337.77C64.2421 332.976 64.2421 332.976 66 331Z" fill="#800020"></path><path d="M37 452C57.4847 451.373 76.9661 454.059 93 468C98.6451 473.455 102.92 478.768 106 486C92.997 490.154 78.3114 486.281 66.5625 480.5C56.5837 474.731 40.7493 463.248 37 452Z" fill="#800020"></path><path d="M432 422C436.927 436.78 433.433 458.7 426.75 472.375C422.376 480.517 416.999 488.951 409 494C408.01 494 407.02 494 406 494C400.914 478.986 403.435 461.884 410.188 447.875C413.386 441.597 417.349 436.269 422 431C422.731 430.138 423.462 429.275 424.215 428.387C429.708 422 429.708 422 432 422Z" fill="#800020"></path><path d="M11 394C17.2768 394.492 22.4647 395.542 28.25 398C29.3463 398.461 29.3463 398.461 30.4648 398.932C48.3134 406.762 60.2326 419.337 68.3359 436.895C69.1102 439.349 69.1161 441.441 69 444C52.9091 443.007 40.1162 436.85 29 425C21.1553 415.513 15.8779 405.255 11 394Z" fill="#800020"></path><path d="M463 279C476.914 285.497 487.384 303.304 492.656 317.07C494.495 322.782 494.367 328.365 494.25 334.312C494.245 335.383 494.24 336.454 494.234 337.557C494.149 346.069 494.149 346.069 493 350C487.57 348.473 483.974 344.809 480 341C479.225 340.281 479.225 340.281 478.434 339.547C463.771 324.365 462.606 304.051 462.894 284.23C462.928 282.487 462.962 280.743 463 279Z" fill="#800020"></path><path d="M464 331C464.66 331 465.32 331 466 331C467.524 333.033 468.899 335.043 470.25 337.188C470.851 338.136 470.851 338.136 471.463 339.103C475.222 345.158 478.354 351.377 481 358C481.34 358.831 481.681 359.663 482.031 360.52C486.961 375.012 484.927 391.219 479 405C476 405 476 405 474.387 403.672C467.013 395.332 462.703 385.736 460 375C459.816 374.416 459.631 373.832 459.441 373.23C456.873 360.25 458.628 343.074 464 331Z" fill="#800020"></path><path d="M531 332C530.464 338.863 529.04 344.873 526.812 351.375C526.497 352.3 526.182 353.224 525.857 354.177C519.572 372.134 509.274 384.593 492.199 393.117C490 394 490 394 487 394C486.109 379.081 491.07 364.525 500.862 353.205C520.256 332 520.256 332 531 332Z" fill="#800020"></path><path d="M454 379C454.66 379 455.32 379 456 379C462.944 396.678 467.011 417.594 460.344 436.023C454.146 449.752 454.146 449.752 449 454C448.34 454 447.68 454 447 454C440.112 440.415 435.591 424.089 440.32 408.992C440.545 408.335 440.769 407.677 441 407C441.245 406.136 441.49 405.273 441.742 404.383C444.119 396.453 447.971 385.029 454 379Z" fill="#800020"></path><path d="M77 379C89.0932 393.064 94.3173 411.721 93.189 429.982C92.43 438.088 89.1711 445.579 86 453C84.68 453 83.36 453 82 453C80.2482 450.971 78.8959 449.134 77.5 446.875C76.9085 445.92 76.9085 445.92 76.305 444.946C66.853 429.026 66.8164 410.171 71.2862 392.577C72.6509 387.685 74.4051 383.356 77 379Z" fill="#800020"></path><path d="M100 422C113.851 433.254 125.329 448.907 128 467C128.166 470.272 128.185 473.537 128.188 476.812C128.2 477.677 128.212 478.541 128.225 479.432C128.237 484.967 127.561 489.687 126 495C116.246 490.852 108.176 479.718 104.238 470.147C101.138 461.922 98.8773 453.928 98.8672 445.086C98.8653 443.45 98.8653 443.45 98.8633 441.781C98.8671 440.657 98.871 439.533 98.875 438.375C98.8711 437.243 98.8673 436.111 98.8633 434.945C98.8646 433.857 98.8659 432.769 98.8672 431.648C98.8683 430.66 98.8694 429.672 98.8706 428.654C98.9865 426.276 99.3217 424.272 100 422Z" fill="#800020"></path><path d="M452 227C456.849 228.33 460.422 230.465 464.312 233.562C464.879 234.01 465.446 234.458 466.03 234.919C478.174 244.655 488.717 256.347 492 272C492.184 272.59 492.369 273.181 492.559 273.789C493.219 277.096 493.104 280.394 493.062 283.75C493.058 284.447 493.053 285.145 493.049 285.863C493.037 287.576 493.019 289.288 493 291C475.773 284.076 465.891 273.321 457.75 256.688C453.911 247.415 451.283 237.042 452 227Z" fill="#800020"></path><path d="M80 226C79.7192 229.34 79.373 232.669 79 236C78.9007 236.927 78.8015 237.854 78.6992 238.809C76.5125 255.088 68.7935 271.435 56 282C50.558 285.923 45.4491 289.052 39 291C37.9841 273.821 41.8087 259.425 53.4726 246.195C72.9127 226 72.9127 226 80 226Z" fill="#800020"></path><path d="M527 269C527.075 272.929 527.129 276.857 527.165 280.786C527.187 282.766 527.225 284.745 527.264 286.725C527.391 303.527 522.122 318.245 511 331C502.354 339 502.354 339 499 339C493.776 325.586 496.945 309.3 502.543 296.461C506.374 288.974 517.191 269 527 269Z" fill="#800020"></path><path d="M0 331C16.6159 336.062 29.9979 349.93 38.5273 364.633C43.5988 374.246 44.2972 382.167 44 393C32.5619 391.512 24.26 384.615 17 376C12.0858 369.254 9.01833 361.735 6 354C5.56881 353.004 5.56881 353.004 5.12891 351.988C2.33418 345.313 1.30061 338.084 0 331Z" fill="#800020"></path><path d="M4.99996 268C19.5493 276.583 29.5456 293.162 33.75 309.25C35.9132 319.381 35.5316 328.987 33 339C22.7425 335.477 15.8416 326.322 11 317C5.67867 305.223 4.69561 293.608 4.87496 280.812C4.88398 279.574 4.893 278.336 4.9023 277.061C4.92562 274.04 4.95835 271.02 4.99996 268Z" fill="#800020"></path><path d="M508 208C508.66 208 509.32 208 510 208C517.109 228.083 519.495 248.377 510.25 268.25C507.54 273.399 504.405 278.14 500 282C499.34 282 498.68 282 498 282C497.187 279.729 496.375 277.458 495.563 275.188C495.332 274.545 495.102 273.902 494.865 273.24C489.471 258.151 490.398 241.603 497 227C497.492 225.9 497.985 224.801 498.492 223.668C501.165 218.053 504.057 212.819 508 208Z" fill="#800020"></path><path d="M22 208C26.0045 209.335 26.9447 211.8 28.875 215.312C29.4012 216.254 29.4012 216.254 29.938 217.215C36.2963 228.812 40.3969 239.901 40.375 253.188C40.3748 254.567 40.3748 254.567 40.3746 255.974C40.2226 265.094 38.2449 272.874 34 281C27.027 277.918 23.1574 271.943 20.1875 265.125C13.5693 247.578 14.6034 228.785 20 211C20.66 210.01 21.32 209.02 22 208Z" fill="#800020"></path><path d="M322 21C322.66 21.33 323.32 21.66 324 22C322.168 23.6887 320.334 25.376 318.5 27.0625C317.995 27.5285 317.489 27.9945 316.969 28.4746C314.061 31.1462 311.116 33.7561 308.113 36.3203C303.659 40.2022 299.681 44.4648 295.688 48.8125C294.298 50.3216 292.907 51.8282 291.512 53.332C290.606 54.3178 290.606 54.3178 289.682 55.3235C287.669 57.3303 285.573 58.7314 283 59.9375C280.917 61.0441 279.578 62.2641 278 64C277.34 63.67 276.68 63.34 276 63C278.996 59.9749 281.997 56.9557 285 53.9375C285.839 53.0899 286.678 52.2424 287.543 51.3691C292.53 46.3629 297.615 41.5743 303 37C304.223 35.9444 305.446 34.8884 306.668 33.832C307.841 32.8251 309.014 31.8186 310.188 30.8125C311.072 30.0516 311.072 30.0516 311.975 29.2754C315.267 26.4515 318.594 23.6876 322 21Z" fill="#F9F7ED"></path><path d="M205 19C208.938 20.7083 212.16 23.2927 215.5 25.9375C216.114 26.4219 216.729 26.9062 217.362 27.4053C222.553 31.5473 227.458 35.9481 232.301 40.4883C235.255 43.2371 238.291 45.8683 241.379 48.4648C243.172 50.1633 244.571 51.9895 246 54C245.34 54 244.68 54 244 54C243.505 54.99 243.505 54.99 243 56C239.094 52.1856 235.26 48.3732 231.75 44.1875C224.462 35.7402 215.698 28.5966 206.984 21.6797C206.33 21.1254 205.675 20.5711 205 20C205 19.67 205 19.34 205 19Z" fill="#F8F4E9"></path><path d="M295 44C295.66 44.33 296.32 44.66 297 45C296.434 45.5311 295.868 46.0622 295.285 46.6094C294.552 47.3158 293.818 48.0222 293.062 48.75C292.332 49.4461 291.601 50.1422 290.848 50.8594C288.937 53.073 288.642 54.245 288 57C285 59 285 59 283 59.9375C280.917 61.0441 279.578 62.2641 278 64C277.34 63.67 276.68 63.34 276 63C282.27 56.73 288.54 50.46 295 44Z" fill="#F6F5ED"></path><path d="M237 379C242.262 380.412 245.722 382.749 250 386C246.063 387.312 244.221 386.339 240.312 385.062C239.133 384.682 237.954 384.302 236.738 383.91C235.835 383.61 234.931 383.309 234 383C234.66 382.67 235.32 382.34 236 382C236.33 381.01 236.66 380.02 237 379Z" fill="#800020"></path><path d="M205 19C209.175 20.7788 212.529 23.5864 216.062 26.375C216.687 26.8571 217.312 27.3392 217.955 27.8359C221.107 30.3119 223.796 32.5937 226 36C223 36 223 36 221.309 34.5312C220.691 33.8609 220.074 33.1906 219.438 32.5C215.546 28.4346 211.362 24.9952 206.906 21.5664C206.277 21.0495 205.648 20.5326 205 20C205 19.67 205 19.34 205 19Z" fill="#EFDFC0"></path><path d="M310 33C310.66 33.66 311.32 34.32 312 35C308.04 38.96 304.08 42.92 300 47C299.01 46.67 298.02 46.34 297 46C301.29 41.71 305.58 37.42 310 33Z" fill="#800020"></path><path d="M269 81C270.65 82.32 272.3 83.64 274 85C273.67 86.65 273.34 88.3 273 90C272.34 90 271.68 90 271 90C267.886 85.8473 267.886 85.8473 268.313 82.6875C268.539 82.1306 268.766 81.5738 269 81Z" fill="#800020"></path><path d="M492 265C494.125 268.188 494.502 270.265 495 274C494.34 274 493.68 274 493 274C492.67 274.66 492.34 275.32 492 276C491.34 272.7 490.68 269.4 490 266C490.66 265.67 491.32 265.34 492 265Z" fill="#F7EFDF"></path><path d="M322 21C322.66 21.33 323.32 21.66 324 22C318.06 27.445 318.06 27.445 312 33C311.34 32.34 310.68 31.68 310 31C313.96 27.7 317.92 24.4 322 21Z" fill="#F1E7CB"></path><path d="M43 263C42.7452 264.316 42.4707 265.628 42.1875 266.938C42.0367 267.668 41.8859 268.399 41.7305 269.152C41.4894 269.762 41.2484 270.372 41 271C40.01 271.33 39.02 271.66 38 272C38.5859 265.848 38.5859 265.848 39 264C41 263 41 263 43 263Z" fill="#F7F0E2"></path><path d="M291 380C291.33 380.66 291.66 381.32 292 382C288.363 385.637 284.889 386.709 280 388C282.191 385.643 284.439 383.979 287.188 382.312C287.903 381.876 288.618 381.439 289.355 380.988C289.898 380.662 290.441 380.336 291 380Z" fill="#800020"></path><path d="M67 436C69.1519 439.228 69.2009 440.284 69 444C67.02 444 65.04 444 63 444C63 443.34 63 442.68 63 442C63.99 441.67 64.98 441.34 66 441C66.33 439.35 66.66 437.7 67 436Z" fill="#D0B168"></path><path d="M309 32C309.66 32.33 310.32 32.66 311 33C308.69 35.31 306.38 37.62 304 40C303.01 39.67 302.02 39.34 301 39C303.64 36.69 306.28 34.38 309 32Z" fill="#F8F2E2"></path><path d="M243 382C246.465 383.98 246.465 383.98 250 386C246.234 387.255 244.628 386.371 241 385C241.66 384.01 242.32 383.02 243 382Z" fill="#800020"></path><path d="M258 59C260.125 62.1876 260.502 64.2651 261 68C259.68 67.01 258.36 66.02 257 65C257.33 63.02 257.66 61.04 258 59Z" fill="#800020"></path></svg></g></g><defs><clipPath id="SvgjsClipPath1263"><rect width="1000" height="1000" x="0" y="0" rx="350" ry="350"></rect></clipPath></defs></svg>